<svg width="300" height="122" viewBox="0 0 300 122" fill="none" xmlns="http://www.w3.org/2000/svg">
<g clip-path="url(#clip0_224_19)">
<path fill-rule="evenodd" clip-rule="evenodd" d="M155.924 0.0299615C153.112 0.151118 150.928 0.349822 148.563 0.699644C139.252 2.0772 130.533 5.42498 122.926 10.544C118.811 13.313 115.035 16.6141 111.88 20.2003C105.95 26.9413 101.909 34.8097 100.056 43.225C99.5695 45.4346 99.2172 47.826 99.0575 50.0036C99.0283 50.4013 98.9937 50.8436 98.9805 50.9865L98.9565 51.2464H112.25H125.544L125.606 50.6928C126.188 45.457 128.422 40.2784 131.927 36.0397C132.488 35.3612 133.214 34.5463 133.597 34.1643C136.291 31.4796 138.746 29.6598 141.874 28.0279C146.542 25.593 151.616 24.2904 157.154 24.105L158.087 24.0739V12.0369V0L157.154 0.00854103C156.642 0.0132409 156.088 0.0228666 155.924 0.0299615Z" fill="white"/>
<path fill-rule="evenodd" clip-rule="evenodd" d="M36.9579 36.169C40.9799 37.9442 42.7756 42.5864 40.9687 46.5377C39.6098 49.5094 39.2103 50.897 38.8023 52.314C38.5782 53.0925 38.3515 53.8798 37.9617 54.9436C37.1691 57.107 36.5499 59.3829 35.8689 61.9924C35.8048 62.238 35.7399 62.4874 35.6742 62.7402C35.5014 63.4049 35.3225 64.093 35.135 64.7972C35.2843 64.7117 35.4373 64.6248 35.5942 64.5361C38.9037 62.6664 41.0575 61.7745 44.283 60.5357C44.7049 60.3736 45.3039 60.0773 46.2603 59.5493C46.4347 59.453 46.6368 59.3398 46.8582 59.2158C47.6125 58.7934 48.5903 58.2458 49.4583 57.8145C50.5184 57.2878 52.3932 56.4151 54.5644 56.1454C57.1507 55.8242 60.8113 56.3418 63.5013 59.4851L64.4348 60.5759L64.9181 61.9197L57.3905 64.5325C64.9181 61.9197 64.9195 61.9238 64.921 61.9279L64.9239 61.9361L64.9298 61.9526L64.9417 61.9864L64.9658 62.0564C64.9821 62.1043 64.9986 62.1545 65.0153 62.207C65.0487 62.312 65.0829 62.4268 65.1169 62.5509C65.1845 62.7981 65.2524 63.0877 65.3093 63.4147C65.422 64.0614 65.5003 64.9028 65.4236 65.8773C65.2602 67.9547 64.4003 70.3626 62.3269 72.3995C61.1673 73.5388 59.904 74.176 59.2628 74.4787C58.5418 74.819 57.7928 75.1013 57.266 75.297C57.076 75.3676 56.8921 75.4354 56.7128 75.5015C55.7562 75.854 54.9281 76.1592 53.9782 76.5966C52.7375 77.1679 51.1161 77.9559 49.7633 78.6226C49.0959 78.9516 48.51 79.243 48.0915 79.452L47.673 79.6613L47.4806 79.7753C47.2076 79.9369 46.826 80.1623 46.3909 80.4181C45.5306 80.9237 44.4237 81.5702 43.5307 82.0766C42.0882 82.8946 40.438 83.7817 38.7964 84.6417C40.0239 86.0341 41.2654 87.4771 42.3708 88.8259C43.4096 90.0933 44.3237 91.2685 45.1673 92.3532C45.2252 92.4277 45.2828 92.5017 45.3401 92.5753C46.2445 93.7379 47.0841 94.8118 48.0388 95.9603C48.7617 96.83 49.273 97.4784 49.7486 98.0814C50.3306 98.8195 50.8592 99.4897 51.6567 100.415C52.8872 101.842 53.6898 102.544 54.1112 102.806C54.3101 102.93 54.4169 102.972 54.7615 102.996C55.0064 103.013 55.3652 103.014 55.9269 102.975C56.5095 102.934 57.1514 102.863 58.0421 102.761C58.7842 102.676 59.0158 102.56 59.0768 102.53C59.1696 102.483 59.477 102.316 60.1605 101.645C61.4345 100.393 62.0881 99.1981 63.2271 96.9601C64.7045 94.0572 66.193 90.2103 67.356 86.7827C68.6132 83.0774 70.1037 79.594 72.7184 75.6615C73.8881 73.6195 75.4032 71.5567 77.3971 69.5978C81.9775 65.0979 86.0303 63.5053 89.1644 62.2737L89.2014 62.2592C93.279 60.6567 97.6323 60.1613 101.23 60.1839C104.653 60.2053 108.413 60.705 111.213 61.9122C111.733 62.1365 112.237 62.3794 112.723 62.6361C114.555 61.1463 117.042 60.4725 119.543 61.016C123.849 61.9515 126.567 66.1386 125.614 70.3681C125.177 72.3118 124.824 74.2466 124.462 76.2272C123.693 80.44 122.886 84.8603 121.149 90.0155C120.317 92.4828 119.49 94.472 118.702 96.3694C118.601 96.6108 118.502 96.8507 118.403 97.09C118.469 97.6809 118.51 98.2258 118.537 98.7195C118.563 99.1696 118.579 99.6201 118.592 99.9748C118.595 100.05 118.598 100.12 118.6 100.186C118.616 100.603 118.63 100.889 118.65 101.137C118.687 101.589 118.734 101.763 118.769 101.865C118.797 101.948 118.877 102.162 119.141 102.547C119.159 102.564 119.182 102.586 119.211 102.611C119.368 102.751 119.597 102.931 119.871 103.114C120.146 103.297 120.389 103.433 120.56 103.514C120.578 103.522 120.593 103.53 120.607 103.536C120.991 103.628 121.31 103.726 121.526 103.797C121.768 103.876 122.013 103.963 122.112 103.999C122.364 104.088 122.444 104.113 122.529 104.136C122.589 104.152 122.783 104.204 123.182 104.24C123.481 104.123 123.849 103.968 124.255 103.78C124.854 103.504 125.438 103.202 125.923 102.916C126.358 102.66 126.568 102.502 126.613 102.468C126.623 102.461 126.625 102.46 126.619 102.465C127.442 101.733 127.701 101.463 128.11 100.968C128.566 100.416 129.099 99.7115 130.102 98.3877C130.345 98.0659 130.617 97.7076 130.921 97.3059L132.362 94.6301L132.004 87.2447L132.001 87.199L131.988 86.9684C131.978 86.7724 131.964 86.4937 131.948 86.1492C131.917 85.462 131.88 84.5036 131.856 83.4107C131.808 81.3099 131.797 78.3981 132.027 75.9539C132.445 71.5004 132.987 66.1872 134.619 60.8662C135.103 59.2878 135.467 58.3201 135.928 57.2819C136.085 56.9293 136.21 56.6559 136.334 56.3881C136.562 55.8931 136.781 55.4168 137.169 54.493C137.473 53.7688 138.82 51.0626 139.796 49.2693C139.848 49.1749 139.925 49.0157 140.027 48.8049C140.536 47.7504 141.669 45.4053 143.353 43.4254C144.119 42.5245 144.971 41.5866 145.602 40.9038C145.924 40.5555 146.202 40.2592 146.4 40.0485C146.5 39.943 146.58 39.8584 146.637 39.7989L146.703 39.7288L146.73 39.7006C146.73 39.7005 146.731 39.6992 152.552 45.0679C151.246 37.3302 151.247 37.33 151.248 37.3299L151.262 37.3275L151.282 37.3243L151.334 37.3163C151.373 37.3102 151.422 37.3028 151.48 37.2943C151.595 37.2773 151.748 37.2559 151.93 37.2328C152.287 37.1877 152.791 37.1316 153.365 37.0931C153.918 37.056 154.663 37.0262 155.466 37.0661C156.133 37.0992 157.489 37.2026 158.94 37.7555C160.347 38.2917 162.332 39.4156 163.917 41.6443C165.511 43.8848 166.251 46.61 166.251 49.5833C166.251 54.541 164.419 60.0172 162.368 65.736C160.753 70.2384 159.896 72.2018 158.898 74.4921C158.518 75.3627 158.118 76.2804 157.648 77.4029C155.785 81.848 153.29 87.4291 151.282 91.8539C150.274 94.076 149.38 96.0246 148.739 97.4182C148.676 97.5539 148.616 97.6844 148.558 97.8095C148.598 98.1485 148.647 98.5188 148.709 98.9045C148.838 99.7057 149.004 100.467 149.201 101.102C149.37 101.646 149.502 101.903 149.531 101.958C149.538 101.972 149.538 101.973 149.53 101.961C150.415 103.253 150.792 103.666 151.006 103.854C151.074 103.913 151.107 103.932 151.134 103.946C151.166 103.963 151.286 104.023 151.562 104.097C151.903 104.187 152.065 104.21 152.117 104.215C152.16 104.212 152.35 104.193 152.817 104.08C152.858 104.06 152.971 104.001 153.157 103.87C153.502 103.626 153.919 103.255 154.379 102.763C154.829 102.282 155.234 101.779 155.591 101.311C155.72 101.142 155.814 101.017 155.917 100.878C155.974 100.802 156.034 100.722 156.104 100.628C156.183 100.523 156.299 100.37 156.421 100.216L156.428 100.207C156.509 100.106 156.796 99.7433 157.181 99.3634C157.732 98.8196 160.64 95.5998 163.736 91.6078C165.497 89.3372 167.021 87.1897 168.156 85.3847C168.157 85.3825 168.158 85.3803 168.158 85.3781C168.533 84.0992 168.96 82.6405 169.52 81.3728C170.348 79.5017 171.45 77.9289 172.814 76.0881C174.045 74.4274 174.964 73.2208 175.917 72.1637C176.865 71.1115 177.767 70.3011 178.719 69.4445L178.853 69.3241C180.042 68.2544 181.801 67.0501 183.599 66.0349C185.411 65.012 187.876 63.8311 190.515 63.2043C193.048 62.6026 195.49 62.4059 197.195 62.3428C198.072 62.3104 198.814 62.3114 199.353 62.3213C199.624 62.3263 199.846 62.3336 200.012 62.3403C200.095 62.3436 200.165 62.3469 200.219 62.3496L200.29 62.3533L200.316 62.3548L200.335 62.3559C200.336 62.3559 200.337 62.356 199.855 70.185C201.058 62.4312 201.059 62.4313 201.059 62.4314L201.063 62.4319L201.087 62.4355L201.14 62.4437L201.316 62.4713C201.464 62.4946 201.669 62.5279 201.92 62.5704C202.42 62.655 203.115 62.7784 203.901 62.9353C205.348 63.2237 207.575 63.7151 209.457 64.4132C209.705 64.505 209.945 64.5958 210.179 64.686C210.192 64.611 210.205 64.534 210.218 64.4548C210.53 62.5629 210.961 60.3113 211.353 58.2697C211.554 57.2191 211.745 56.2242 211.903 55.3624C212.255 53.4436 212.696 51.073 213.154 48.9028C213.573 46.918 214.127 44.4993 214.772 42.809C216.588 38.0517 221.186 37.0192 223.541 37.0478C225.947 37.0771 229.699 38.1265 231.743 41.8043C233.113 44.2694 233.143 46.92 233.123 48.1565C233.098 49.7378 232.887 51.3618 232.661 52.738C232.388 54.4054 231.823 57.0429 231.528 58.4195C231.432 58.8679 231.364 59.1825 231.345 59.2863C231.001 61.1297 229.687 65.9132 228.552 70.0141C228.288 70.968 228.028 71.9032 227.78 72.7963C226.861 76.1051 226.103 78.8366 225.874 79.8016C225.518 81.3022 225.231 82.5328 224.989 83.5664C224.059 87.5544 223.813 88.609 222.907 90.9165C222.438 92.1098 222.108 93.0126 221.812 93.8228C221.764 93.9562 221.716 94.087 221.669 94.2162C221.351 95.0842 220.985 96.0718 220.5 97.0871C219.866 98.4159 219.113 99.608 218.16 100.919C218.173 101.089 218.185 101.254 218.195 101.414C218.226 101.892 218.248 102.373 218.266 102.759C218.27 102.841 218.274 102.919 218.277 102.992C218.299 103.451 218.317 103.775 218.343 104.057C218.377 104.44 218.415 104.62 218.432 104.686C218.445 104.703 218.466 104.728 218.499 104.764C219.344 105.69 219.681 105.95 219.836 106.052L219.843 106.056C219.892 106.09 220.051 106.197 220.63 106.314C221.662 106.522 222.093 106.568 223.403 106.463C223.413 106.462 223.423 106.461 223.434 106.46C223.691 106.442 224.03 106.417 226.533 105.113C227.972 104.363 228.732 103.771 229.863 102.472C229.992 102.177 230.155 101.788 230.352 101.305C230.878 100.014 231.532 98.3334 232.213 96.5762C232.295 96.3645 232.377 96.1517 232.46 95.9384C233.048 94.4177 233.644 92.88 234.141 91.6344C234.424 90.9276 234.7 90.2525 234.941 89.6968C235.06 89.4227 235.196 89.1187 235.338 88.8274L235.346 88.8099C235.432 88.6336 235.733 88.0131 236.183 87.3845C236.436 87.0311 236.714 86.7045 237.011 86.4052C237.021 86.3746 237.031 86.3442 237.041 86.3139C237.248 85.676 237.43 85.114 237.563 84.643C238.714 80.5761 240.771 75.5745 245.313 71.1122C249.893 66.6123 253.946 65.0197 257.08 63.7881L257.117 63.7735C261.195 62.1711 265.548 61.6757 269.146 61.6983C272.568 61.7197 276.329 62.2194 279.129 63.4266C279.649 63.6509 280.153 63.8938 280.639 64.1505C282.471 62.6607 284.958 61.9869 287.459 62.5304C291.764 63.4659 294.483 67.653 293.53 71.8825C293.093 73.8262 292.739 75.7609 292.378 77.7416C291.609 81.9543 290.802 86.3747 289.064 91.5299C288.233 93.9971 287.406 95.9863 286.618 97.8837C286.517 98.1251 286.418 98.3651 286.319 98.6043C286.385 99.1953 286.426 99.7402 286.453 100.234C286.479 100.684 286.495 101.135 286.508 101.49C286.511 101.565 286.514 101.635 286.516 101.7C286.532 102.118 286.546 102.403 286.566 102.652C286.603 103.103 286.65 103.278 286.685 103.379C286.713 103.463 286.793 103.676 287.057 104.062C287.075 104.079 287.098 104.1 287.127 104.125C287.284 104.265 287.513 104.446 287.787 104.628C288.062 104.812 288.305 104.947 288.476 105.028C288.494 105.037 288.509 105.044 288.523 105.05C288.907 105.142 289.226 105.241 289.442 105.311C289.684 105.39 289.929 105.478 290.028 105.513C290.28 105.602 290.36 105.628 290.445 105.65C290.54 105.676 290.971 105.791 292.016 105.791C296.426 105.791 300 109.302 300 113.634C300 117.966 296.426 121.477 292.016 121.477C289.641 121.477 287.791 121.199 286.242 120.784C285.509 120.587 284.928 120.382 284.614 120.27L284.611 120.269C284.584 120.26 284.559 120.251 284.537 120.243C282.284 119.693 280.237 118.554 278.813 117.603C277.65 116.827 276.284 115.762 275.113 114.477C274.827 114.686 274.531 114.896 274.225 115.111C270.903 117.44 267.876 119.375 262.58 120.365C260.014 120.844 257.123 121.229 254.063 120.917C250.836 120.588 247.841 119.536 244.91 117.709C243.339 116.729 241.853 115.613 240.522 114.256C238.756 116.027 236.782 117.529 234.015 118.971C231.478 120.292 228.597 121.785 224.704 122.097C221.857 122.326 219.906 122.182 217.416 121.679C215.034 121.198 212.917 120.377 210.958 119.09C209.368 118.045 208.107 116.834 207.086 115.749C206.422 116.317 205.709 116.866 204.945 117.383C202.906 118.761 200.787 120.11 198.142 120.902C195.616 121.659 193.084 121.752 190.753 121.835C190.621 121.839 190.487 121.844 190.349 121.85C187.428 121.958 183.078 122.119 177.646 120.236C177.554 120.212 177.453 120.184 177.347 120.153C176.526 119.914 175.634 119.543 174.713 118.974C172.929 117.873 171.436 116.281 170.12 114.323C169.348 113.176 168.736 112.023 168.249 110.875C167.734 111.544 167.016 112.437 166.135 113.379C164.433 115.198 161.244 118.17 156.79 119.274C153.584 120.068 150.878 120.164 147.396 119.24C142.939 118.057 140.197 115.712 138.202 113.306C137.927 113.563 137.639 113.824 137.329 114.099C135.409 115.805 132.815 117.161 131.048 117.977C130.064 118.431 129.058 118.845 128.142 119.165C127.688 119.323 127.174 119.488 126.644 119.622C126.278 119.715 125.283 119.963 124.101 119.963C121.725 119.963 119.875 119.685 118.327 119.27C117.593 119.073 117.012 118.867 116.699 118.756L116.695 118.755C116.668 118.745 116.643 118.737 116.622 118.729C114.368 118.179 112.321 117.039 110.897 116.089C109.734 115.312 108.368 114.248 107.197 112.963C106.911 113.171 106.615 113.382 106.309 113.597C102.987 115.926 99.9597 117.86 94.6637 118.85C92.0977 119.33 89.2074 119.714 86.1468 119.403C82.9205 119.074 79.9251 118.022 76.9944 116.195C75.1967 115.074 73.5108 113.774 72.0402 112.139C71.8499 112.338 71.6536 112.538 71.451 112.737C70.0427 114.12 68.4012 115.467 66.3326 116.503C64.2293 117.557 62.0824 118.092 59.8833 118.343C59.7402 118.359 59.5921 118.377 59.4392 118.395C56.2281 118.77 50.923 119.391 45.5661 116.057C43.0149 114.469 40.9351 112.25 39.4717 110.552C38.6472 109.596 37.5155 108.18 36.6678 107.119C36.2359 106.579 35.8776 106.13 35.6713 105.882C34.5386 104.519 33.5617 103.268 32.6541 102.101L32.5043 101.909C31.6417 100.8 30.8414 99.7708 29.9341 98.6639C29.5816 98.2338 29.2093 97.7881 28.8237 97.3332C28.1005 99.5048 27.3489 101.685 26.6433 103.596C26.398 104.26 26.134 104.983 25.8622 105.726C25.3107 107.235 24.727 108.831 24.202 110.211C23.8047 111.255 23.3995 112.286 23.0219 113.165C22.7465 113.806 22.1885 115.095 21.4457 116.146C20.905 116.911 20.2239 117.684 19.423 118.371C18.7307 118.964 17.3832 119.986 15.4724 120.499C13.2006 121.109 9.59832 121.014 6.85549 118.137C4.74675 115.925 4.43911 113.3 4.3686 112.14C4.1953 109.29 5.14915 106.527 5.63091 105.132L5.64196 105.1C5.85146 104.493 6.041 103.965 6.21437 103.481C6.59865 102.41 6.90342 101.56 7.16969 100.571C7.44389 99.5517 7.71058 98.5439 7.97719 97.5364C8.68377 94.8663 9.38985 92.198 10.2342 89.3269C11.2791 85.7739 12.005 83.7372 12.8662 81.3207C13.2456 80.2562 13.6512 79.1179 14.1221 77.7437C14.7262 75.9805 15.2326 74.5211 15.7064 73.1556C16.5651 70.6812 17.3168 68.5149 18.3491 65.4072C19.0388 63.3309 19.5895 61.2161 20.216 58.8101C20.2772 58.5751 20.3391 58.3373 20.402 58.0965C21.0816 55.4923 21.8623 52.5673 22.9381 49.631C22.9494 49.6003 22.9782 49.4999 23.0248 49.3376C23.3363 48.2523 24.4425 44.3984 26.4038 40.1094C28.2107 36.158 32.936 34.3939 36.9579 36.169ZM86.4403 83.704C85.8438 84.8205 85.4 86.0262 85.0318 87.3281C84.5577 89.0044 84.1875 90.1335 83.8984 91.0153C83.4053 92.5196 83.148 93.3042 83.0134 94.8576C82.9978 95.0369 82.9832 95.2058 82.9693 95.3652C82.8335 96.9259 82.7767 97.5784 82.7817 98.1678C82.785 98.5455 82.8132 98.8889 83.0193 99.6234C83.3515 100.808 83.6499 101.299 83.8495 101.564C84.0517 101.831 84.4585 102.269 85.5499 102.95C86.5527 103.575 87.2047 103.74 87.7935 103.8C88.548 103.877 89.6405 103.821 91.6787 103.44C93.6164 103.078 94.4037 102.672 97.0323 100.829C98.8051 99.5857 99.3782 99.0705 100.442 97.7117C101.631 96.1931 101.987 95.5315 102.59 93.7401L102.651 93.5569L102.722 93.377C103.319 91.8584 103.777 90.7628 104.177 89.8071C104.823 88.2651 105.316 87.0873 105.991 85.0851C106.877 82.4549 107.389 80.4439 107.798 78.4603C106.78 77.477 105.703 76.6673 104.797 76.2766C104.798 76.2769 104.794 76.2761 104.788 76.2742C104.666 76.2407 103.375 75.8843 101.128 75.8702C98.929 75.8564 96.7564 76.1853 95.1315 76.8238C93.6503 77.4059 92.7178 77.7835 91.772 78.3148C90.8988 78.8053 89.9014 79.4974 88.6876 80.6899C87.9096 81.4543 87.279 82.2719 86.7557 83.1463C86.6591 83.3349 86.554 83.5209 86.4403 83.704ZM182.949 91.6013C182.292 93.9714 182.231 95.3697 182.279 98.6968C182.344 103.211 182.651 104.459 183.381 105.583C185.696 106.317 187.45 106.255 190.101 106.161L190.177 106.158C192.808 106.065 193.267 105.963 193.485 105.898L193.489 105.897C193.595 105.865 193.989 105.748 195.89 104.462C197.768 103.192 199.061 101.135 200.312 98.8827C200.399 98.7277 200.488 98.5546 200.65 98.2423L200.721 98.1047C200.902 97.7561 201.154 97.2724 201.443 96.7692C201.69 96.339 202.039 95.757 202.504 95.1196C203.696 90.5577 204.471 87.5306 205.728 82.5351C205.949 81.6571 206.151 80.8655 206.34 80.1285C205.621 79.788 204.83 79.4643 203.817 79.0886C203.211 78.8637 202.048 78.5722 200.725 78.3084C200.128 78.1893 199.593 78.0942 199.21 78.0294C199.159 78.0209 199.112 78.0129 199.067 78.0055C199.063 78.0054 199.058 78.0053 199.054 78.0052C198.765 77.9999 198.327 77.9987 197.796 78.0184C196.684 78.0595 195.393 78.1842 194.267 78.4516C193.684 78.5901 192.699 78.9898 191.554 79.636C191.027 79.9335 190.555 80.2334 190.182 80.4911C189.85 80.7201 189.678 80.8598 189.641 80.8896C189.633 80.8962 189.632 80.8974 189.637 80.8928C188.515 81.902 188.212 82.1847 187.87 82.5643C187.488 82.988 186.981 83.6239 185.723 85.3207C185.664 85.4005 185.607 85.4775 185.553 85.5518C185.486 85.898 185.395 86.2438 185.278 86.5873C184.737 88.1845 183.917 89.8887 182.949 91.6013ZM275.714 79.9747C274.696 78.9913 273.619 78.1817 272.713 77.791C272.713 77.7913 272.71 77.7905 272.703 77.7886C272.582 77.7551 271.291 77.3987 269.044 77.3846C266.845 77.3708 264.672 77.6997 263.047 78.3382C261.566 78.9203 260.634 79.2979 259.688 79.8292C258.815 80.3197 257.817 81.0118 256.603 82.2043C254.695 84.0788 253.674 86.2731 252.948 88.8425C252.474 90.5188 252.103 91.6479 251.814 92.5297C251.321 94.034 251.064 94.8186 250.929 96.372C250.914 96.551 250.899 96.7196 250.885 96.8788C250.749 98.4401 250.693 99.0927 250.698 99.6823C250.701 100.06 250.729 100.403 250.935 101.138C251.267 102.322 251.566 102.814 251.765 103.078C251.968 103.346 252.374 103.784 253.466 104.464C254.469 105.089 255.121 105.254 255.709 105.314C256.464 105.391 257.556 105.336 259.595 104.955C261.532 104.592 262.32 104.187 264.948 102.343C266.721 101.1 267.294 100.585 268.358 99.2261C269.547 97.7076 269.903 97.0459 270.506 95.2545L270.567 95.0713L270.638 94.8914C271.235 93.3729 271.693 92.2773 272.093 91.3216C272.739 89.7796 273.232 88.6018 273.906 86.5994C274.793 83.9693 275.305 81.9583 275.714 79.9747ZM199.855 70.185L201.059 62.4314L200.699 62.3775L200.337 62.356L199.855 70.185ZM152.136 104.216C152.137 104.216 152.131 104.216 152.117 104.215C152.128 104.215 152.135 104.215 152.136 104.216ZM152.552 45.0679L151.248 37.3299L148.581 37.7641L146.73 39.7006L152.552 45.0679Z" fill="white"/>
</g>
<defs>
<clipPath id="clip0_224_19">
<rect width="300" height="121.739" fill="white"/>
</clipPath>
</defs>
</svg>
